<?xml version="1.0" encoding="UTF-8" standalone="no"?>
<!-- Created with Inkscape (http://www.inkscape.org/) -->

<svg
   xmlns:osb="http://www.openswatchbook.org/uri/2009/osb"
   xmlns:dc="http://purl.org/dc/elements/1.1/"
   xmlns:cc="http://creativecommons.org/ns#"
   xmlns:rdf="http://www.w3.org/1999/02/22-rdf-syntax-ns#"
   xmlns:svg="http://www.w3.org/2000/svg"
   xmlns="http://www.w3.org/2000/svg"
   xmlns:sodipodi="http://sodipodi.sourceforge.net/DTD/sodipodi-0.dtd"
   xmlns:inkscape="http://www.inkscape.org/namespaces/inkscape"
   width="15cm"
   height="10cm"
   viewBox="0 0 150 100"
   version="1.1"
   id="svg4568"
   inkscape:version="0.92.3 (2405546, 2018-03-11)"
   sodipodi:docname="oko.svg">
  <defs
     id="defs4562">
    <inkscape:path-effect
       effect="bspline"
       id="path-effect6775"
       is_visible="true"
       weight="33.333333"
       steps="2"
       helper_size="0"
       apply_no_weight="true"
       apply_with_weight="true"
       only_selected="false" />
    <inkscape:path-effect
       effect="bspline"
       id="path-effect6771"
       is_visible="true"
       weight="33.333333"
       steps="2"
       helper_size="0"
       apply_no_weight="true"
       apply_with_weight="true"
       only_selected="false" />
    <inkscape:path-effect
       effect="bspline"
       id="path-effect6767"
       is_visible="true"
       weight="33.333333"
       steps="2"
       helper_size="0"
       apply_no_weight="true"
       apply_with_weight="true"
       only_selected="false" />
    <inkscape:path-effect
       effect="spiro"
       id="path-effect6763"
       is_visible="true" />
    <linearGradient
       id="linearGradient5301"
       osb:paint="solid">
      <stop
         style="stop-color:#000000;stop-opacity:1;"
         offset="0"
         id="stop5299" />
    </linearGradient>
  </defs>
  <sodipodi:namedview
     id="base"
     pagecolor="#ffffff"
     bordercolor="#666666"
     borderopacity="1.0"
     inkscape:pageopacity="0.0"
     inkscape:pageshadow="2"
     inkscape:zoom="2.32"
     inkscape:cx="159.99455"
     inkscape:cy="198.17299"
     inkscape:document-units="cm"
     inkscape:current-layer="layer1"
     showgrid="false"
     units="cm"
     showguides="true"
     inkscape:guide-bbox="true"
     inkscape:measure-start="0.477796,370.769"
     inkscape:measure-end="567.275,370.769"
     inkscape:window-width="732"
     inkscape:window-height="417"
     inkscape:window-x="67"
     inkscape:window-y="27"
     inkscape:window-maximized="0">
    <sodipodi:guide
       position="74.999999,50"
       orientation="0,1"
       id="guide4570"
       inkscape:locked="false"
       inkscape:label=""
       inkscape:color="rgb(0,0,255)" />
    <sodipodi:guide
       position="74.999999,50"
       orientation="1,0"
       id="guide4572"
       inkscape:locked="false"
       inkscape:label=""
       inkscape:color="rgb(0,0,255)" />
    <sodipodi:guide
       position="5.063897,86.212846"
       orientation="0,1"
       id="guide6795"
       inkscape:locked="false" />
    <sodipodi:guide
       position="16.20447,13.672522"
       orientation="0,1"
       id="guide6797"
       inkscape:locked="false" />
  </sodipodi:namedview>
  <metadata
     id="metadata4565">
    <rdf:RDF>
      <cc:Work
         rdf:about="">
        <dc:format>image/svg+xml</dc:format>
        <dc:type
           rdf:resource="http://purl.org/dc/dcmitype/StillImage" />
        <dc:title />
      </cc:Work>
    </rdf:RDF>
  </metadata>
  <g
     inkscape:label="Layer 1"
     inkscape:groupmode="layer"
     id="layer1"
     transform="translate(0,-197.00001)">
    <g
       id="g6783"
       style="stroke:#000000;stroke-width:5;stroke-miterlimit:4;stroke-dasharray:none;stroke-opacity:1">
      <g
         id="g6789">
        <path
           style="fill:none;stroke:#000000;stroke-width:5;stroke-linecap:butt;stroke-linejoin:miter;stroke-miterlimit:4;stroke-dasharray:none;stroke-opacity:1"
           d="m 1.3831816,245.6032 c 44.9148514,46.62894 105.8164884,47.24297 147.8103784,0"
           id="path6777"
           inkscape:connector-curvature="0"
           sodipodi:nodetypes="cc" />
        <path
           sodipodi:nodetypes="cc"
           inkscape:connector-curvature="0"
           id="path6779"
           d="m 1.3831816,248.56953 c 44.9148514,-46.62894 105.8164884,-47.24297 147.8103784,0"
           style="fill:none;stroke:#000000;stroke-width:5;stroke-linecap:butt;stroke-linejoin:miter;stroke-miterlimit:4;stroke-dasharray:none;stroke-opacity:1" />
      </g>
    </g>
    <path
       id="circle6791"
       style="fill:#050000;fill-opacity:1;fill-rule:evenodd;stroke:#000000;stroke-width:4.14009523;stroke-linecap:square;stroke-linejoin:miter;stroke-miterlimit:4;stroke-dasharray:none;stroke-opacity:1;paint-order:fill markers stroke"
       sodipodi:type="arc"
       sodipodi:cx="75"
       sodipodi:cy="247.00002"
       sodipodi:rx="17.929953"
       sodipodi:ry="17.929953"
       sodipodi:start="4.2760567"
       sodipodi:end="3.7524579"
       d="m 67.422475,230.74996 a 17.929953,17.929953 0 0 1 22.699494,6.6163 17.929953,17.929953 0 0 1 -3.596818,23.3689 17.929953,17.929953 0 0 1 -23.638452,-0.5158 17.929953,17.929953 0 0 1 -2.574056,-23.50354 L 75,247.00002 Z" />
    <path
       style="fill:none;fill-opacity:1;fill-rule:evenodd;stroke:#000000;stroke-width:4.99999996;stroke-linecap:butt;stroke-linejoin:round;stroke-miterlimit:4;stroke-dasharray:none;stroke-opacity:1;paint-order:fill markers stroke"
       id="path6785"
       sodipodi:type="arc"
       sodipodi:cx="75.386169"
       sodipodi:cy="246.61383"
       sodipodi:rx="29.136173"
       sodipodi:ry="29.136173"
       sodipodi:start="4.2760567"
       sodipodi:end="3.7524579"
       d="m 63.072691,220.20749 a 29.136173,29.136173 0 0 1 36.886678,10.75149 29.136173,29.136173 0 0 1 -5.844829,37.97445 29.136173,29.136173 0 0 1 -38.412484,-0.83816 29.136173,29.136173 0 0 1 -4.182842,-38.19326 l 23.866955,16.71182 z" />
    <path
       style="fill:#ffffff;stroke:none;stroke-width:0.26458332px;stroke-linecap:butt;stroke-linejoin:miter;stroke-opacity:1;fill-opacity:1"
       d="M 75,247.00001 40.357332,228.0074 58.191587,219.88569 Z"
       id="path7380"
       inkscape:connector-curvature="0" />
    <path
       style="fill:#ffffff;stroke:none;stroke-width:0.26458332px;stroke-linecap:butt;stroke-linejoin:miter;stroke-opacity:1;fill-opacity:1"
       d="m 75,247.00001 -9.021625,-30.63093 -4.270174,1.1722 -3.516614,2.34441 7.116956,17.33188 z"
       id="path7390"
       inkscape:connector-curvature="0" />
    <path
       style="fill:#ffffff;stroke-width:8.14553356;stroke-miterlimit:4;stroke-dasharray:none"
       d="M 258.22731,305.5909 C 200.47232,299.40708 146.59201,279.72941 94.719785,245.87621 73.077958,231.75217 47.662914,211.56919 29.994552,194.47562 l -5.387931,-5.21265 4.525862,-4.35499 c 23.366143,-22.48397 52.438341,-44.71349 79.956897,-61.13755 41.57675,-24.814506 83.20805,-40.354402 128.79549,-48.076058 4.78748,-0.81091 9.30232,-1.65529 10.03297,-1.876402 l 1.32846,-0.40202 2.28961,7.815526 c 1.25928,4.29854 2.45953,8.426958 2.66723,9.174262 l 0.37764,1.358735 2.68533,-0.8175 c 1.47694,-0.449625 5.01293,-1.295079 7.85775,-1.878786 44.40324,-9.110739 90.03821,13.429333 109.91464,54.289163 4.5082,9.26748 7.20282,17.53871 9.05729,27.80172 0.97476,5.39457 1.3593,21.113 0.66575,27.21369 -2.56751,22.58474 -11.96989,42.58289 -27.60951,58.72327 -8.88638,9.17092 -16.75044,14.89168 -28.23506,20.53974 -9.96849,4.90244 -19.86628,7.95013 -31.03449,9.55603 -5.77729,0.83072 -21.27735,0.71244 -27.17281,-0.20736 -29.0189,-4.52749 -53.4953,-20.08148 -69.67081,-44.27364 -3.64167,-5.4465 -8.76965,-15.77109 -10.91832,-21.98276 -8.58558,-24.82045 -7.23939,-52.16024 3.71228,-75.39247 1.16342,-2.46801 2.06562,-4.53504 2.0049,-4.59339 -0.0607,-0.0583 -3.79575,-2.14051 -8.30006,-4.62703 -6.1657,-3.40366 -8.31275,-4.39894 -8.68773,-4.0273 -0.99658,0.98772 -5.45194,11.424 -7.47926,17.5195 -4.08811,12.29166 -5.57735,21.11039 -5.89596,34.91379 -0.2578,11.16907 0.29532,17.9968 2.20114,27.17117 7.16413,34.48715 28.51606,63.45893 59.51698,80.7568 10.3494,5.77476 24.30151,10.72786 36.48122,12.95112 l 3.17395,0.57937 -2.58621,-0.01 c -1.42241,-0.005 -4.13793,-0.17589 -6.03448,-0.37896 z m 38.08357,-41.92484 c 11.23116,-2.09634 20.41531,-5.79423 29.42057,-11.84587 16.58833,-11.14753 27.98903,-28.23122 32.01156,-47.96861 7.19203,-35.28916 -12.18761,-71.49763 -45.42087,-84.86331 -9.86845,-3.96888 -15.62827,-5.15296 -26.53052,-5.45407 -8.94968,-0.24718 -13.65407,0.18392 -20.4182,1.87106 -2.62505,0.65475 -2.7972,0.64995 -3.34051,-0.0931 -0.31506,-0.43087 -0.57284,-0.6791 -0.57284,-0.55162 0,0.12747 4.84708,16.686 10.77128,36.79673 5.92421,20.11072 10.72069,36.61555 10.65885,36.67739 -0.0618,0.0618 -14.75266,-7.91924 -32.64628,-17.73573 -17.89362,-9.81649 -32.74868,-17.85406 -33.01125,-17.86127 -0.63902,-0.0175 -3.78405,6.90657 -5.61031,12.35169 -8.02319,23.92161 -3.45001,50.65662 12.07812,70.60935 2.91708,3.74826 8.9947,9.80213 12.99196,12.94118 10.28319,8.07538 22.7217,13.47993 35.11246,15.25641 1.77801,0.25492 3.71767,0.54704 4.31034,0.64916 2.40484,0.41437 16.77014,-0.14003 20.19564,-0.77942 z"
       id="path4602"
       inkscape:connector-curvature="0"
       transform="matrix(0.26458333,0,0,0.26458333,0,197.00001)" />
    <path
       style="fill:#ffffff;stroke-width:8.14553356;stroke-miterlimit:4;stroke-dasharray:none"
       d="M 260.16697,305.7804 C 228.46244,302.53356 200.76614,296.05041 171.15835,284.94527 135.10213,271.42149 98.442522,250.64629 65.554897,225.09921 53.623675,215.83105 32.784024,197.72637 26.546277,191.21004 l -1.939656,-2.02629 4.525862,-4.32943 c 33.909086,-32.43737 74.717457,-60.86514 113.610007,-79.14255 32.04793,-15.060798 60.8285,-24.139891 95.17838,-30.024879 4.76768,-0.816823 9.27273,-1.663778 10.01122,-1.882124 l 1.34272,-0.396992 2.49628,8.681683 c 1.37295,4.774925 2.6511,8.857147 2.84031,9.071605 0.20092,0.227721 2.10036,-0.08174 4.56618,-0.743929 14.43956,-3.87772 30.64124,-4.346477 45.68089,-1.321668 42.52194,8.552115 74.92964,43.912514 79.89793,87.177504 0.77131,6.71673 0.32407,21.78078 -0.83993,28.29127 -3.84632,21.51304 -13.44999,39.59699 -29.20307,54.99008 -19.58857,19.14093 -45.8669,29.28756 -73.21023,28.26807 -15.11021,-0.56339 -27.98651,-3.825 -41.35295,-10.47486 -29.8239,-14.83754 -50.10587,-43.20527 -54.81112,-76.6626 -0.87392,-6.21413 -0.98212,-18.79953 -0.21396,-24.88782 1.30943,-10.37831 4.59017,-21.88215 8.68644,-30.45887 1.17803,-2.46655 2.09099,-4.53422 2.0288,-4.59483 -0.44355,-0.4323 -16.16073,-8.80374 -16.53272,-8.80583 -0.25925,-0.001 -1.46041,2.08248 -2.66924,4.63097 -5.12229,10.799 -8.30469,21.36325 -10.29029,34.15949 -0.9653,6.22089 -1.10872,26.05112 -0.23225,32.11207 2.02521,14.00466 5.72389,25.98764 11.77177,38.13817 12.24243,24.59571 32.67463,44.27024 57.76714,55.62499 6.84806,3.09886 17.55894,6.5857 24.94321,8.12006 5.47107,1.13682 5.92769,1.29324 3.66379,1.25512 -1.42241,-0.024 -3.26508,-0.11307 -4.09482,-0.19805 z m 36.20689,-42.19639 c 15.27442,-2.65338 28.72486,-9.5816 40.01857,-20.61326 6.76932,-6.61225 11.23511,-12.84463 15.32022,-21.38064 11.60961,-24.25876 9.6274,-52.14545 -5.30354,-74.61292 -9.31271,-14.01338 -22.90461,-24.42497 -38.78556,-29.71029 -8.03994,-2.67577 -12.55091,-3.45572 -21.59451,-3.73374 -8.49379,-0.26112 -12.88363,0.11055 -19.52016,1.65268 -3.03286,0.70475 -3.915,0.77417 -4.42797,0.34845 -0.51736,-0.42938 -0.59942,-0.41627 -0.42664,0.0681 0.72546,2.03376 21.34328,72.52493 21.24223,72.62598 -0.0684,0.0684 -14.81767,-7.9223 -32.77612,-17.75714 -17.95844,-9.83485 -32.86248,-17.75128 -33.12008,-17.59207 -1.40448,0.86801 -5.8757,12.66802 -7.41917,19.57992 -6.83776,30.62065 5.9003,62.16203 32.19888,79.7293 9.08747,6.07038 20.14773,10.21186 31.74903,11.88832 5.18867,0.7498 17.18113,0.49115 22.84482,-0.49271 z"
       id="path4604"
       inkscape:connector-curvature="0"
       transform="matrix(0.26458333,0,0,0.26458333,0,197.00001)" />
    <path
       style="fill:#ffffff;stroke-width:8.14553356;stroke-miterlimit:4;stroke-dasharray:none"
       d="M 254.348,305.17853 C 183.29363,296.84858 117.16335,267.50599 55.21007,216.81927 47.376132,210.40998 36.362043,200.68671 29.999611,194.56339 c -4.97541,-4.78842 -5.334313,-5.23955 -4.741379,-5.95982 0.352821,-0.4286 3.550976,-3.49267 7.10701,-6.80906 C 92.808302,125.42476 162.5544,88.838228 233.01179,76.541852 c 3.67457,-0.641294 8.84488,-1.585708 11.48958,-2.098698 l 4.80854,-0.932709 2.46871,8.482305 c 1.35779,4.665268 2.61458,8.718331 2.79287,9.006807 0.24644,0.398747 1.34363,0.255831 4.5762,-0.596083 10.8975,-2.871935 24.4482,-3.983931 35.30259,-2.896999 43.10941,4.31687 78.27491,35.049835 88.31957,77.187075 3.14333,13.18624 3.25196,30.77481 0.27403,44.36913 -4.01036,18.30738 -12.69405,34.41628 -25.89185,48.03136 -9.59833,9.9018 -19.33137,16.79723 -31.25231,22.14086 -18.75456,8.40684 -40.74271,10.8564 -60.84872,6.77878 -54.63446,-11.08021 -89.97544,-64.92717 -78.36542,-119.40077 1.58664,-7.44442 4.10831,-14.89228 7.66185,-22.62958 l 1.49417,-3.25332 -8.07338,-4.39754 c -4.44035,-2.41864 -8.26762,-4.39754 -8.50504,-4.39754 -0.23742,0 -1.31881,1.89117 -2.40309,4.20259 -8.58445,18.29996 -12.0818,35.64355 -11.36458,56.35776 0.39338,11.36171 2.06909,20.951 5.52846,31.63696 13.50701,41.72286 47.318,71.75165 91.08265,80.89384 l 4.74138,0.99044 -2.80172,-0.0147 c -1.54095,-0.008 -5.90518,-0.37857 -9.69828,-0.82325 z m 36.2069,-40.94492 c 26.37645,-2.30012 49.8443,-18.70237 61.18993,-42.76715 5.78308,-12.26627 8.29018,-25.58009 7.19583,-38.21313 -2.86931,-33.1231 -25.88727,-60.15921 -57.79631,-67.88558 -9.49847,-2.29994 -23.76973,-2.56999 -32.57221,-0.61635 -2.37069,0.52615 -4.85261,0.97084 -5.51537,0.98819 -1.02083,0.0267 -1.16863,0.17659 -0.96688,0.9804 0.13098,0.52187 4.8925,16.7983 10.58116,36.16985 5.68866,19.37154 10.28766,35.27634 10.22001,35.34399 -0.0677,0.0677 -9.71795,-5.12977 -21.4451,-11.54984 -34.13145,-18.68536 -44.09189,-24.02345 -44.43276,-23.81279 -0.62961,0.38913 -3.45879,6.83561 -5.14092,11.71396 -5.45374,15.81645 -5.42755,33.21883 0.0741,49.21243 1.85287,5.38645 6.4274,14.29257 9.75881,18.99941 3.70643,5.23669 12.50178,14.03828 17.77215,17.78474 4.88112,3.46977 14.60771,8.41314 20.1472,10.23946 10.18259,3.35712 19.62207,4.39853 30.93039,3.41241 z"
       id="path4606"
       inkscape:connector-curvature="0"
       transform="matrix(0.26458333,0,0,0.26458333,0,197.00001)" />
    <path
       style="fill:#ffffff;stroke-width:8.14553356;stroke-miterlimit:4;stroke-dasharray:none"
       d="M 255.85662,305.39206 C 190.85589,298.33599 127.14455,271.89047 69.21869,227.92174 56.172067,218.01868 39.416683,203.73902 29.790399,194.31927 l -5.183778,-5.07256 5.387931,-5.20186 c 23.021306,-22.22628 53.625651,-45.41179 81.681038,-61.88065 40.49463,-23.770852 80.2178,-38.479664 125,-46.285371 5.45258,-0.950406 10.52393,-1.895014 11.26965,-2.099128 l 1.35586,-0.371116 1.58732,5.448519 c 2.8405,9.750057 3.72352,12.560588 3.94634,12.560588 0.1205,0 2.14435,-0.488029 4.49745,-1.08451 11.19718,-2.838339 24.78413,-3.927872 35.35904,-2.835432 46.61814,4.815879 83.84088,40.79245 89.81529,86.8084 0.83563,6.43618 0.85428,20.06868 0.0358,26.16327 -2.36106,17.58063 -9.24811,34.31308 -19.71958,47.90975 -3.67358,4.76995 -11.32716,12.73678 -15.86267,16.51191 -13.97226,11.62978 -30.25363,18.90887 -49.35345,22.06497 -6.6673,1.10172 -22.60149,1.10561 -29.31035,0.007 -20.62528,-3.37701 -37.56841,-11.43059 -53.01724,-25.2007 -22.1591,-19.75122 -34.83165,-51.24471 -32.57492,-80.95434 0.96768,-12.73943 3.44197,-22.7041 8.52846,-34.34659 1.40405,-3.21373 2.24783,-5.669 2.02138,-5.88188 -1.13552,-1.06745 -15.75522,-8.6556 -16.17567,-8.39575 -0.67381,0.41644 -4.23294,8.06786 -6.16518,13.25393 -5.57819,14.9717 -8.04835,30.75174 -7.39997,47.27293 0.95183,24.25314 9.09744,47.077 23.76703,66.59482 17.70649,23.55839 43.12634,39.54402 72.61094,45.66241 l 4.9569,1.02862 -2.80172,-0.01 c -1.54095,-0.005 -5.2263,-0.27305 -8.18966,-0.59473 z m 38.74522,-41.6023 c 14.66023,-1.99942 29.59749,-9.29046 40.84894,-19.93881 11.11282,-10.51714 18.46944,-23.53599 21.8718,-38.70601 6.74411,-30.06986 -6.04099,-61.79575 -31.85389,-79.04452 -13.62189,-9.10246 -28.66425,-13.24376 -45.68965,-12.57877 -7.65454,0.29897 -18.01997,2.22985 -17.68407,3.29421 0.68226,2.16188 20.91682,71.28137 20.91682,71.45004 0,0.23267 -0.34152,0.0489 -27.80172,-14.95884 -30.43258,-16.63224 -37.19764,-20.25144 -37.8543,-20.25144 -0.33216,0 -1.39393,1.71253 -2.38712,3.85018 -18.38989,39.5805 0.0804,86.07985 40.67245,102.39397 4.74773,1.90813 12.18516,3.90192 16.81035,4.50643 1.89655,0.24788 4.03017,0.53371 4.74138,0.63519 2.00823,0.28654 13.75371,-0.1531 17.40901,-0.65163 z"
       id="path4608"
       inkscape:connector-curvature="0"
       transform="matrix(0.26458333,0,0,0.26458333,0,197.00001)" />
    <path
       style="fill:#ffffff;stroke-width:8.14553356;stroke-miterlimit:4;stroke-dasharray:none"
       d="M 253.91697,305.17905 C 204.68329,299.4109 157.48281,283.26677 111.93329,256.61593 84.229246,240.40641 53.075248,216.84021 30.425587,194.96008 l -5.818966,-5.62127 2.155173,-2.22705 C 29.812291,183.95953 40.445796,174.22943 46.804897,168.77147 99.989238,123.1239 158.16008,92.887498 218.78766,79.377219 c 4.1487,-0.9245 12.39985,-2.560293 18.33588,-3.635096 5.93604,-1.074803 11.11278,-2.076976 11.50387,-2.227051 0.55438,-0.21274 0.81833,0.12547 1.19785,1.534891 0.98547,3.659777 4.72476,16.066872 4.89297,16.235087 0.0955,0.09553 2.18493,-0.340358 4.64311,-0.968636 10.95218,-2.799231 24.81326,-3.905085 35.32991,-2.818664 19.51046,2.015525 38.26485,9.700893 53.39896,21.88239 19.72014,15.87279 33.15819,39.83125 36.41633,64.92601 0.86759,6.68237 0.86445,19.8212 -0.006,26.46446 -3.27516,24.98657 -15.86675,47.62219 -35.75565,64.27719 -17.49322,14.64886 -40.50658,22.92162 -63.76391,22.92162 -43.11306,0 -81.66258,-27.67949 -95.19757,-68.35417 -3.76344,-11.30969 -5.20861,-20.20968 -5.20861,-32.07687 0,-14.89602 2.44552,-26.61398 8.52597,-40.85302 1.32625,-3.10578 2.41136,-5.7419 2.41136,-5.85803 0,-0.24158 -8.59727,-5.00029 -13.24416,-7.33083 l -3.11487,-1.56219 -0.67385,1.02843 c -1.37494,2.09843 -5.08312,11.01904 -7.09812,17.07564 -2.41949,7.27239 -3.99273,14.04313 -5.013,21.57431 -0.90677,6.69336 -1.02956,24.04427 -0.2149,30.36535 2.86867,22.25832 11.52337,42.80747 25.41122,60.33469 3.39329,4.28251 12.05053,13.07032 16.87872,17.13328 9.52415,8.01464 23.55048,16.06507 35.43914,20.34032 6.51378,2.3424 10.33723,3.43619 17.5781,5.02865 l 5.38793,1.18495 -3.01724,-0.006 c -1.65948,-0.003 -6.12069,-0.37004 -9.91379,-0.81444 z m 34.87143,-40.93574 c 10.51194,-0.71503 18.41094,-2.80072 27.62857,-7.29518 31.15587,-15.19144 47.98616,-49.10556 41.14244,-82.90469 -5.02523,-24.8182 -22.48152,-45.80844 -45.97157,-55.27834 -13.44297,-5.41946 -30.1391,-6.7784 -44.63883,-3.63327 -2.07807,0.45075 -4.03048,0.97296 -4.33871,1.16046 -0.43327,0.26357 1.81373,8.40851 9.90431,35.90126 5.75559,19.55819 10.42327,35.7066 10.37261,35.88535 -0.0507,0.17875 -11.82675,-6.09248 -26.1691,-13.93607 -32.6189,-17.83869 -39.07648,-21.22899 -39.70063,-20.84324 -0.79689,0.4925 -3.72861,7.08543 -5.34516,12.02034 -2.92149,8.91852 -3.41075,12.24263 -3.42882,23.29604 -0.0179,10.9693 0.55855,15.1739 3.2208,23.49138 1.65746,5.17827 6.55168,15.15691 9.55031,19.47176 11.18041,16.08794 28.00257,27.37494 46.76281,31.37599 7.76468,1.65599 11.88771,1.90878 21.01097,1.28821 z"
       id="path4610"
       inkscape:connector-curvature="0"
       transform="matrix(0.26458333,0,0,0.26458333,0,197.00001)" />
    <path
       style="fill:#ffffff;stroke-width:8.14553356;stroke-miterlimit:4;stroke-dasharray:none"
       d="m 300.46869,306.29687 c 47.05959,-6.75885 84.24563,-37.96855 98.61618,-82.76711 3.4123,-10.63747 5.01945,-20.48017 5.34894,-32.75862 0.56658,-21.11396 -3.40069,-38.87957 -12.86628,-57.61574 -13.56718,-26.85484 -36.5984,-47.257854 -65.66781,-58.174133 -5.18493,-1.947072 -4.50961,-2.054037 4.97701,-0.788313 77.10584,10.287616 147.94377,47.471666 210.10292,110.286656 l 4.73509,4.78505 -6.67475,6.71172 c -48.88195,49.1527 -103.83342,82.51496 -163.54415,99.29132 -23.26052,6.53528 -49.62613,10.71597 -72.00991,11.41832 l -7.32758,0.22992 z"
       id="path4612"
       inkscape:connector-curvature="0"
       transform="matrix(0.26458333,0,0,0.26458333,0,197.00001)" />
    <path
       style="fill:#ffffff;stroke-width:8.14553356;stroke-miterlimit:4;stroke-dasharray:none"
       d="m 300.46869,306.29626 c 53.7774,-7.74737 94.54825,-47.83444 102.87303,-101.14771 0.82582,-5.28872 0.9654,-7.87865 0.96067,-17.82569 -0.004,-8.71712 -0.18663,-12.80681 -0.72708,-16.29534 -4.14446,-26.7516 -15.6954,-49.84297 -34.11375,-68.19646 -12.3563,-12.312778 -25.51282,-20.795503 -42.48425,-27.391912 -6.43622,-2.501611 -5.99813,-2.585274 5.42673,-1.036366 75.26522,10.203967 146.15644,47.342148 206.85253,108.364998 l 6.4603,6.49508 -6.89133,6.92806 c -48.30065,48.55807 -102.33544,81.54189 -161.34489,98.48786 -24.49277,7.03368 -50.79837,11.29388 -74.21024,12.01836 l -7.11206,0.22008 z"
       id="path4614"
       inkscape:connector-curvature="0"
       transform="matrix(0.26458333,0,0,0.26458333,0,197.00001)" />
  </g>
</svg>
